<?xml version="1.0" encoding="utf-8"?>
<!-- Generator: Adobe Illustrator 16.0.0, SVG Export Plug-In . SVG Version: 6.00 Build 0)  -->
<!DOCTYPE svg PUBLIC "-//W3C//DTD SVG 1.1//EN" "http://www.w3.org/Graphics/SVG/1.1/DTD/svg11.dtd">
<svg version="1.1" id="Capa_1" xmlns="http://www.w3.org/2000/svg" xmlns:xlink="http://www.w3.org/1999/xlink" x="0px" y="0px"
	 width="235.031px" height="379.105px" viewBox="0 0 235.031 379.105" enable-background="new 0 0 235.031 379.105"
	 xml:space="preserve">
<g>
	<g>
		<g>
			<g>
				<g>
					<path fill="#D2D2D2" d="M5.779,9.419c-0.366-0.2-1.211-0.102-1.038,0.435l1.426,0.396L5.779,9.419z"/>
					<path fill="#D2D2D2" d="M3.184,12.989c0.695,0.635,1.914,1.36,3.215,0.957c-1.372-0.624-0.804-0.771-2.437-1.45
						c-0.171-0.538,0.446-0.931,0.97-0.836c-0.367-0.192,0.304-0.826-0.591-1.124c-1.094,0.683-1.128,1.572-0.21,2.498
						C3.819,13.229,3.446,13.036,3.184,12.989z"/>
					<path fill="#D2D2D2" d="M3.705,65.539l0.138-0.352C3.758,65.287,3.717,65.407,3.705,65.539z"/>
					<path fill="#D2D2D2" d="M5.733,97.96c-0.05-0.244-0.198-0.335-0.327-0.338C5.515,97.844,5.614,98.024,5.733,97.96z"/>
					<path fill="#D2D2D2" d="M4.539,103.579c0.037-0.121,0.05-0.221,0.075-0.331C4.491,103.381,4.427,103.511,4.539,103.579z"/>
					<path fill="#D2D2D2" d="M3.705,65.539l-0.367,0.904C3.805,66.463,3.64,65.969,3.705,65.539z"/>
					<path fill="#D2D2D2" d="M6.687,20.169c-0.07-0.179-0.205-0.327-0.378-0.462c0.063,0.147,0.115,0.29,0.155,0.437
						C6.538,20.152,6.6,20.159,6.687,20.169z"/>
					<path fill="#D2D2D2" d="M1.387,51.316l-0.023-0.264c-0.167-0.065-0.368-0.124-0.593-0.176L1.387,51.316z"/>
					<path fill="#D2D2D2" d="M0.421,40.308c-0.04,0.253,1.17,0.268,1.701,0.332c-0.503-0.111-0.75-0.281-0.854-0.495
						C1.039,40.154,0.766,40.203,0.421,40.308z"/>
					<path fill="#D2D2D2" d="M1.822,22.714l-0.171-0.307C1.704,22.487,1.754,22.622,1.822,22.714z"/>
					<path fill="#D2D2D2" d="M1.746,59.214C1.568,59.248,1.415,59.3,1.324,59.35C1.475,59.337,1.615,59.286,1.746,59.214z"/>
					<path fill="#D2D2D2" d="M17.526,366.284c-0.086-0.009-0.141,0.004-0.215,0.001C17.433,366.348,17.519,366.369,17.526,366.284z"
						/>
					<path fill="#D2D2D2" d="M11.575,379.031l-0.065-0.178c-0.229-0.021-0.453-0.042-0.676-0.044L11.575,379.031z"/>
					<path fill="#D2D2D2" d="M3.653,113.725c0.013-0.02,0.013-0.027,0.021-0.046C3.529,113.422,3.558,113.57,3.653,113.725z"/>
					<path fill="#D2D2D2" d="M3.5,206.656c1.071-1.062,1.404,1.72,2.586,0.122C5.606,206.928,4.208,205.333,3.5,206.656z"/>
					<path fill="#D2D2D2" d="M6.531,20.454C6.546,20.6,6.559,20.75,6.548,20.9C6.585,20.696,6.58,20.559,6.531,20.454z"/>
					<path fill="#D2D2D2" d="M6.085,206.778c0.004,0,0.009,0,0.009,0l0.111-0.165C6.156,206.681,6.128,206.719,6.085,206.778z"/>
					<path fill="#D2D2D2" d="M4.834,136.77c0.213-0.045,0.376-0.135,0.532-0.23C5.243,136.546,5.091,136.598,4.834,136.77z"/>
					<path fill="#D2D2D2" d="M6.285,119.517l-0.147,0.434C6.242,119.777,6.275,119.639,6.285,119.517z"/>
					<path fill="#D2D2D2" d="M6.405,145.735c-0.096,0.229-0.263,0.3-0.107,0.623c0.063-0.026,0.106-0.054,0.149-0.09
						C6.284,146.147,6.209,145.992,6.405,145.735z"/>
					<path fill="#D2D2D2" d="M6.123,155.145c0.094-0.046,0.166-0.109,0.25-0.164c-0.017-0.095-0.037-0.205-0.054-0.302
						L6.123,155.145z"/>
					<path fill="#D2D2D2" d="M16.67,337.56c-0.336,0.213-0.708,0.349-1.076,0.456C16.449,337.855,16.782,339.237,16.67,337.56z"/>
					<path fill="#D2D2D2" d="M6.008,20.184c0.306,0.05,0.457,0.127,0.523,0.27c-0.015-0.107-0.04-0.21-0.068-0.31
						C6.284,20.12,6.114,20.116,6.008,20.184z"/>
					<path fill="#D2D2D2" d="M15.915,146.5l-0.202,1.519C15.837,147.597,15.906,147.044,15.915,146.5z"/>
					<path fill="#D2D2D2" d="M14.656,269.931l0.155,0.339C14.835,270.137,14.796,270.016,14.656,269.931z"/>
					<path fill="#D2D2D2" d="M15.744,152.461c-0.435,0.247-0.693,0.517-0.865,0.801c0.093,0.065,0.167,0.139,0.305,0.187
						L15.744,152.461z"/>
					<path fill="#D2D2D2" d="M15.582,338.019c0.004-0.003,0.013-0.003,0.013-0.003S15.586,338.016,15.582,338.019z"/>
					<path fill="#D2D2D2" d="M18.638,347.86c0.007-1.432-1.566-0.651-2.481-0.943c-0.484-1.699,1.152-0.805,1.953-1.397
						c-0.441-1.061-1.913-1.856-1.866-2.651c0.26-0.063,0.353-0.219,0.683-0.043c-1.283-1.106-0.126-3.343-1.735-4.628
						c0.138-0.1,0.271-0.151,0.391-0.178c-0.792,0.227-1.598,0.272-2.173,0.239c-0.04-0.64-1.025-1.169,0.007-1.429
						c-0.022,0.393,0.396,0.418,0.724,0.596l-0.462-0.662c1.478-0.631,0.532,0.906,1.636,0.887
						c-0.511-1.301-1.774-2.802-1.372-3.812c1.454-0.238,0.536,2.335,1.807,0.972l-0.528,1.563c2.278-1.229-0.141,0.946,2.298-0.188
						c0.383-2.053-0.787-2.272-0.401-4.319c-0.819-0.442-1.196,0.176-2.015-0.266c-1.512-2.863,3.623-2.358,1.639-4.446
						c-0.982-0.53-2.831-0.7-1.884-2.238l1.659,0.478c0.125-1.982-2.392-1.071-1.323-3.169c0.655,0.352,0.576,1.54,0.766,1.236
						c1.276-1.374-0.953-0.926-0.973-1.957l1.455-0.251c-0.29-2.097-1.412-4.385-1.745-6.706c0.438,0.117,0.906,0.504,1.337-0.053
						c-0.814-2.917-0.003-6.274,0.781-9.133l-1.291-1.046c0.007-0.252,0.556-0.483,0.808-0.219c0.446-1.117-0.8-0.033-1.311-0.55
						c-0.106-0.626,0.7-0.851,1.09-0.464c-1.124-1.918-2.461-5.481-1.171-7.574l0.386,0.389c0.465-1.614-2.634-1.725-1.502-3.243
						l0.231,0.277c0.44-3.482-0.833-7.275,0.988-9.978c-1.831-0.447,0.703-3.453-1.834-3.6c1.193-2.017,1.664-1.464,2.42-4.274
						c0.094-0.748-1.614-1.063-1.907-1.975l1.323-0.062l-1.427-1.208l1.562-0.711l-0.366-0.854
						c-0.067,0.346-0.572,0.748-0.954,0.708c-0.641-1.331,0.82-3.313,1.497-3.367l-1.218-3.155c0.535,0.055,0.733,0.584,1.086,0.996
						c-1.401-1.663,1.382-0.351,0.1-1.874c-0.294,0.218-0.791-0.089-1.059-0.117c0.78-0.8,0.743-2.567,0.373-3.865l0.919,0.225
						c0.172-2.367-0.563-4.966-0.614-7.617c-0.4,0.961-1.987,0.783-2.159,0.009l1.388-0.346c-0.875-0.48-0.504,0.825-1.589-0.179
						c0.136-0.995,1.573-0.706,2.043-0.148l-0.516-1.192c0.415-0.081,0.643,0.196,1.177,0.256c-0.881-0.473,1.351-2.111-0.175-2.788
						l0.414-0.077c-0.055-2.649-0.566-3.84-0.691-5.997c-1.209-0.016-0.962-0.866-1.954-1.488c0.347-1.596,1.246-3.377,1.103-5.285
						c-0.617-1.331-1.027-0.372-1.751-0.963c1.098-0.12,0.972-2.025,1.774-1.05c-0.207-2.289-0.254-2.923-1.182-5.81
						c-0.447,0.321-0.639,0.679-1.017,0.501c-0.187-0.523,0.447-1.205,0.977-1.137l0.116,0.137
						c-1.688-3.237,3.117-7.548,0.792-10.113l0.115,0.144l-1.227-2.678c0.175-1.237,0.835,0.736,1.506-0.184
						c-1.871-2.888,0.21-4.58-1.041-6.962c3.248-1.851-0.174-6.549,1.917-9.034l-0.766,0.141c-0.743-0.646,0.444-0.776,0.623-1.249
						c-0.594,0.063-0.693,0.694-1.104,0.292c-0.873-5.462,1.216-11.245,1.954-16.809c0.238-2.036-3.979-1.242-2.06-3.779
						l1.392,0.763c-1.551-4.162,0.369-8.419-0.926-12.498c0.318,0.251,0.743,0.272,0.724,0.666c1.062-0.817,0.166-3.147-0.674-3.193
						c0.119-0.625,0.765-0.118,1.207-0.49c0.639-0.832-1.236-2.194-0.195-2.609c0.17-0.071,0.326,0.253,0.399,0.412
						c-0.479-0.576,0.222-2.588-0.985-2.103c0.622-1.491-0.422-2.92,0.326-4.098c-1.299-0.847,0.735-2.563-1.135-2.9
						c1.945,0.209,1.66-2.589,0.745-3.623c0.582,0.352,0.622-0.826,1.428-0.41c-0.01-1.122-0.354-2.16-1.355-1.998
						c2.355-1.995-1.807-4.172,1.188-5.269c-1.011-3.341-1.617-6.403-2.104-9.361c1.984,0.08,0.182,3.282,2.218,3.146
						c-0.712-2.842-2.517-4.421-2.117-7.216c0.242-0.728,0.854,0.391,1.192,0.628c-0.889-2.792,0-5.447-1.136-7.909
						c0.18,0,0.386,0.262,0.542,0.511c-0.079-0.491,0.245-1.158-0.63-1.067l0.253,0.471c-1.251,0.833-2.731-1.843-3.408-1.897
						c2.548,0.722,0.554-2.485,3.783-1.31c-0.177-0.317-0.607-0.704-1.192-0.601c0.155-0.488,0.494-0.659,1.179-0.203
						c-0.538-1.742-1.438-1.067-1.525-2.657c0.426-0.017,0.612,0.294,1.124,0.433c-0.883-0.762-1.768-1.522-1.498-2.884
						c0.262,0.066,0.585-0.109,0.606,0.292c-0.283-2.302-2.471-3.792-1.838-6.366c1.897,0.621,0.55-0.9,2.141-1.145l-0.568-1.329
						l-0.739,0.601c-0.053-1.194-1.288-2.16-0.832-3.221l0.718,0.835l-0.453-2.208l-0.522,1.308
						c-0.904-1.14-2.014,0.282-1.674-1.332c0.183,0.308-0.056-1.188,0.823-1.88c0,0,0,0.004,0.005,0.003
						c-0.56-0.545-1.147-1.104-0.826-2.012c0.491-0.269,1.783,0.04,2.111-0.136c-1.386-0.47-0.611-2.747-2.097-3.36
						c0.355,0.216,1.196,0.159,1.36,0.064l-1.128-0.395c0.3-0.578,0.461-0.673,1.137-0.64c0.056-1.668-1.981,0.695-1.277-1.338
						c0.101,0.146,0.257,0.059,0.449,0.366c0.286-2.008-1.017-3.743-0.639-5.598c1.562-0.676,0.53,1.546,1.833,0.815
						c-0.514-2.588-2.393-5.229-2.246-7.778l-0.135,0.485c-2.3-0.145,0.952-1.976-0.232-3.153c0.195,0.297,1.295,0.296,1.035,0.234
						c0.209-1.756-0.876-3.474-1.825-6.023l0.612,0.272c0.428-1.062,0.058-2.702,0.224-3.822c-0.611-0.275-0.574-0.911-1.386-0.456
						c3.036-3.662-2.292-6.306,0.235-9.53c0.035,0.358,0.577,0.814,0.555,0.53L7.12,50.718c-0.973,0.276-0.573,0.38-1.301,0.975
						c-0.612-0.279-1.124-0.968-1.173-1.603c0.746,1.103,1.588-0.128,2.102-0.665c-0.297,0.105-0.645-0.04-0.95,0.024
						c1.656-1.463-2.009-0.079-0.966-1.99l0.527,0.06c-0.319-0.664-1.056-1.245-0.965-1.993c1.122-0.384,0.592,0.69,1.538,0.671
						c-0.147-1.027-2.337-1.893-1.233-2.908c0.344,0.419,0.373,1.051,0.731,1.469c1.269-1.11,0.938-1.204,1.107-1.974L6.51,42.862
						l0.519-1.785l-0.341,0.467c-3.054-1.111-0.682-2.598-2.729-4.233c1.94,1.596,1.086,0.221,2.392,0.282
						c0.337-0.464,0.707-1.159,1.082-0.986c-1.09-0.767,0.756-1.409-0.837-2.493c0.415-0.072-0.004-0.88,1.056-0.744
						c-0.384-1.051-0.715,0.285-1.245,0.22c-1.514-1.588,1.535-3.938-0.549-6.231c-0.861-2.016-2.253-2.355-2.983-4.249
						c0.663-0.659,1.53,0.491,1.53,0.491c0.606-1.05,0.485-1.823-0.004-2.792c0.367,0.192,0.674-0.017,1.141-0.321
						c-0.117-0.778-1.53-0.501-0.923-1.541c0.469,0.172,1.218,0.389,1.69,0.759c-0.395-0.913-1.187-1.813-1.574-2.766
						c0.727-0.257,1.113,0.569,1.594,0.899c-0.34-1.065-0.69-2.765-1.849-3.097l-0.405,0.689c-0.06-0.392,0.99-0.203,1.203,0.084
						c0.916,0.914-0.386,1.325-0.807,1.38l-0.275-0.679c-2.449,0.714,0.423,2.736,0.294,4.1l-1.792-0.546l1.497,1.385
						c-0.461,0.307-1.458,0.532-1.731-0.144c-0.872,1.004,0.644,0.861-0.332,1.729c-0.152,0.097-0.238,0.057-0.31-0.029l0.542,0.953
						c-0.377-0.18-1.259,0.191-1.007-0.409c-1.012,1.766,1.368,2.761,0.022,3.454l-0.111-0.142c0.682,2.384,1.312,0.191,2.931,1.934
						l-3.17,1.331l1.322,0.186c-0.034,0.25-0.107,0.743-0.636,0.674c0.944,0.885,0.562-0.18,1.436,0.32
						c-1.132,1.242,0.727,3.254-1.345,3.622c1.017,0.379,0.709-1.176,1.467,0.062c-2.226,0.473,0.46,1.45-0.513,2.59
						c-1.175-0.272-0.615-1.339-1.592-0.193c1.991,0.553-0.32,2.147,0.103,3.05c1.56-0.049,0.753,1.961,1.352,3.471
						c-0.551-0.061-0.658,2.955-1.103,4.427l-0.265-0.023c1.595,0.165,1.414,1.662,1.824,2.712
						c-0.945,0.028-1.332-0.138-1.799-0.689l0.086,1.011c0.523,0.201,0.813,0.497,1.044,1.139l-1.195-0.165
						c0.17,1.343,1.597,2.603,0.948,4.397c1.104,0.007,2.945-1.619,3.82,0.146c-0.587,0.116-1.596,0.266-1.876-0.193
						c0.09,0.151,0.536,0.519,0.308,0.855l-1.054-0.649c-0.376,0.824,0.865,0.344,0.822,0.981c-0.847,0.057-0.566,0.516-1.244,0.481
						c-0.094-0.154,0.307-0.579-0.044-0.793c-0.096,0.723-0.529,1.624-1.147,1.962c0.476-0.103,1.138-0.096,1.289,0.416
						c0.167,1.34-0.98,0.547-1.353,1.37c0.611,0.276,0.072,1.188,1.34,1.099c0.029,0.393-0.554,0.517-0.881,0.699
						c0.619,0.646,0.452,3.229,1.724,2.329l0.073-0.186c0.029,0.031,0.034,0.07,0.065,0.108c0-0.006,0,0,0-0.006l0,0.006
						c1.461,2.164-0.289,4.789,0.456,6.999l-0.423,0.034c0.604,1.305,0.556,2.974,1.551,3.854c0.035,0.398-0.686,1.01-1.205,0.885
						c0.41,1.001,0.897,1.075,0.331,2.624c-0.827-0.967-0.621,0.417-0.633-1.011c-0.245,1.371-0.898,1.732,0.381,3.063
						c-1.124-0.392-1.276,1.126-0.897,1.732l0.693-1.004c0.22,0.7,0.177,1.333,0.14,1.975l-1.453-0.218
						c-1.497,2.877,3.372,4.676,0.652,6.999c1.058,0.64,0.573-1.542,1.794-0.993c-0.083,1.274-2.015,2.75-1.985,3.144
						c-0.645,1.783,2.228,1.439,1.827,3.283c0.492-0.27,1.833-0.596,2.403,0.717c-0.104,1.276-2.029,1.708-2.489,0.946
						c-0.063-0.298,0.088-0.456,0.262-0.456c-0.211-0.392-0.465-0.907-0.983-0.368l0.519,0.124
						c-0.477,0.663-0.308,2.385-1.168,2.041c0.547,0.911,0.86,0.344,1.077-0.378c-0.629,1.664,0.146,2.517-0.238,4.208
						c0.263-0.282,0.844-0.565,0.856-0.303c-0.467,2.474,1.036,1.006,1.37,2.643c-0.713,0.987-1.874-0.218-1.113,1.4
						c-0.458,1.045-1.335,0.296-1.777-0.079c1.082,1.449-0.456,2.855-0.579,3.724l-0.463-0.769c0.275,0.459,0.294,0.849,0.318,1.244
						l0.987-0.509c-0.146,0.476-0.124,0.871-0.548,0.885c0.699,0.444,1.668-0.461,2.644,0.444c-0.464,0.65,0.671,1.87-0.685,2.153
						c0.387-1.979-1.331,0.286-1.641-1.356c0.186,0.31,0.203,0.7,0.034,1.174c-0.148,0.078-0.282-0.052-0.363-0.174
						c-1.147,1.921,1.556,0.78,1.587,2.72c-0.77-0.211-1.43,0.512-1.257,0.819c-0.01-0.778,1.258-0.429,1.865,0.265
						c-0.553,1.267,0.485,1.334,0.437,1.989l0.255-0.755c0.769,0.223,0.69,0.851,0.958,1.712c-0.591,0.095-0.433-0.775-0.685-0.456
						c1.371,0.921-1.315,2.224-0.37,3.538c-0.495,0.636-1.43,0.1-1.762,0.654c1.037,1.477-0.991,1.647-0.123,3.204
						c1.009-0.473,0.756-0.55,1.792,0.545l-0.806-2.583l1.544,1.637c-0.011-0.787-0.698-1.644-0.539-2.119
						c0.861,0.776,0.604,0.702,1.442,0.305c-1.501,1.11,0.965,2.12-0.032,3.386l-2.537,0.002c-1.038,1.876,1.347,3.291,0.672,5.712
						l0.453-0.776c1.004,0.324,0.118,1.494,0.515,2.279c-0.847-0.078-1.162,0.409-1.695,0.737c0.63-0.034-0.084,1.761,1.605,2.007
						l-1.132,1.06c-0.486,1.934,2.382,2.284,2.065,4.165c-0.913-0.596-1.526,0.237-2.167-1.038
						c-0.018,0.625-0.181,1.182,0.407,1.211c-0.537,0.345,1.115,1.779,0.302,2.325c0.368,0.279,1.254,0.403,1.173,1.107
						c-0.173,0.069-0.418-0.021-0.418-0.021c0.418,0.021,0.552,1.132,1.499,0.557c-2.691,1.825-0.002,5.467-2.329,7.07
						c0.233,1.398,0.444,3.078,0.459,4.338c-0.25-0.09-0.422-0.02-0.325-0.255c-0.852,1.707,2.394,1.157,1.441,3.097
						c-1.407,0.96-0.703-1.074-1.244-0.464c-2.798,0.175,0.292,2.396-1.384,3.671l-0.152-0.328
						c-0.985,0.987,0.965,2.515,0.705,4.167c0,0-0.244-0.088-0.421-0.022c1.381,1.177,1.772,3.336,2.109,4.94
						c-1.073-0.523-0.551-0.739-1.671-0.464c0.131,0.719,1.789-0.165,2.046,1.269c-0.615,0.449-1.174,1.467-2.363,1.577l-0.015-1.35
						c-1.556,0.655-0.014,1.747-0.302,2.45l-0.667-0.104c0.198,2.073,1.885,2.135,1.745,4.352l0.509-0.22
						c1.659,1.241-0.949,1,0.282,2.23l-1.698,0.339c0.402,0.809,1.614,2.829,1.92,4.267c-1.25-0.828-1.878-2.518-2.615-3.569
						c-0.02,0.794,0.101,2.701,0.934,3.126c-0.161-0.322-0.572-0.73-0.309-1.044c1.324,0.993,1.968,2.28,1.925,3.859
						c-3.283-0.314-0.865,4.111-3.426,5.242c1.19,2.808-0.568,5.557-0.401,8.824c2.567-1.16,0.064,0.953,2.692,0.748
						c0.16,0.759,0.117,1.048-0.051,1.116l-1.541,2.305c-0.758,0.549-0.587-0.72-1.176-0.647c-0.182,1.664-1.104,0.702-1.789,1.808
						c0.937-0.23,1.352,0.571,1.004,1.522l1.195-1.343c1.425,2.315-2.18,2.023-0.768,4.358l-0.835-0.735
						c0.502,1.199,0.036,4.439,2.16,5.596c-0.301,0.216-1.016,0.505-1.211-0.022c-0.282,2.88,2.321,6.366,1.048,8.616l-0.644-0.208
						c0.192,0.533,1.218,0.914,0.579,1.595c-0.266-0.029-0.643-0.205-0.678,0.044c0.225,0.28,1.142,1.405,0.776,2.121l-0.729-0.594
						c-0.807,2.819,1.801,4.27,2.31,6.603c-1.89,0.033-2.449,2.248-2.728,3.354L2.8,241.114c-0.152,3.266,1.706,5.501,2.523,8.499
						c-2.004,1.924-0.699,6.365-1.773,9.406c0.332-0.47,1.474,0.035,1.677,0.564c-0.365,0.717,1.36,1.915-0.375,1.852l0.026-0.252
						c-1.686,0.58-1.198,2.021-1.215,3.154l2.273,0.121c-3.206,3.058,1.451,7.721-1.453,9.424c0.589,0.697,0.61,1.583,1.198,2.274
						l-1.217-0.002c-0.249,1.988-0.371,2.981-0.006,5.42l-0.884-0.473c-0.038,1.383,3.558,1.636,3.669,2.907l-1.802,0.438
						c0.103,2.406-1.416,4.893,0.303,7.221c-0.267-0.03-0.793-0.085-0.879-0.473c-0.01,1.137-1.098,4.418,1.38,3.931
						c-1.621,0.078-0.086,2.485,0.666,3.764l-1.202-0.166c1.56,1.05,1.979,1.073,2.447,2.592c-0.146,0.368-0.949,0.347-0.657-0.145
						c-0.592,1.228,1.16,0.909,0.565,2.395l-0.78-0.525c-0.056,1.247,0.351,1.137,1.261,1.796c0.503,0.769-0.233,2.37-1.31,2.584
						c0.664,0.148,1.566,0.806,1.275,1.547c-0.406,0.111-0.667-0.149-0.795-0.28c-0.754,2.104,1.48,3.056,0.347,4.519
						c-0.396,0.04-0.591,0.139-0.707,0.261c-0.018-1.653,0.008-2.985,0.099-2.863c-1.103,0.03-1.258,1.37-2.812,0.351
						c0.862,1.048,2.722,2.831,2.241,4.146c-0.105,0.066-0.208,0.131-0.376,0.183L6.38,315.15c-0.101,0.304,0.009,0.569,0.202,0.818
						c-0.169,0.419-0.296,0.687-0.3,1.086c-0.908,0.178-0.448,1.543-0.474,2.209c1.206-0.086,1.037,0.791,2.01-0.052
						c-0.083,0.108-0.148-0.122-0.211-0.563c-0.039-0.099-0.06-0.216-0.133-0.28c0.031,0.013,0.068,0.027,0.107,0.043
						c-0.047-0.436-0.091-1.006-0.128-1.652c0.628,0.51,1.16,1.046,0.512,1.8c0.785,0.321,1.594,0.677,1.974,0.879
						c-1.655,0.954-2.517,2.733-3.555,3.002c0.716,2.014,0.539,4.771,2.83,5.998c0.303,0.572-0.637,0.679-0.989,0.902
						c-0.234-0.329-0.207-0.726-0.536-0.898c0.604,1.141,0.292,3.415,1.881,3.658c-0.687,1.471-1.474-0.788-1.176,1.207l-0.49-0.261
						c-2.456,3.978,4.167,6.326,1.001,10.744c0.193-0.305,0.283-0.457,0.546-0.523c-0.673,2.498-0.271,5.056-0.014,7.607
						c0.237,2.55,0.368,5.098-0.763,7.557c-0.455,1.396,0.557,1.542,1.328,2.391l-1.296,0.307l1.5,1.45
						c1.1,2.065-3.175,3.578-1.097,6.188l0.873-0.336c-0.163,0.938,0.521,2.976-0.484,2.815c0.16,0.097,0.91,0.312,0.455,0.677
						l-0.678,0.025l1.167,2.312c-0.487,1.784-2.694-0.295-2.821,2.31c0.263,0.969,1.981,2.773,2.435,2.414
						c0.032-0.391,0.421-0.996,1.101-1.021l0.355,0.891c2,0.179,4.048,0.884,5.441-1.293l-1.226-1.532l0.969-0.484l0.063,1.283
						c0.912-0.722,0.104-1.189-0.452-1.709c0.516-0.119,0.875-0.331,1.067-0.633l-1.913-1.506c0.782-0.178,1.553,0.679,1.983-0.324
						c-0.889-0.704-1.753,0.664-2.337-0.497c0.907-0.726,1.648-0.511,0.87-1.368c0.515-0.119,0.843,0.063,1.07,0.403
						c-0.619-0.765-0.265-2.018-1.329-2.412c1.12-0.759-0.297-2.571,1.596-2.496c-0.454-0.24-1.488-1.341-1.568-2.04
						c2.268,1.274,0.127-2.619,2.558-2.289c-2.04-0.939-0.912-3.417-2.046-5.085c0.162,0.092,0.49,0.274,0.387,0.423
						c0.167-0.944,0.78-1.224,1.164-1.833c-1.683-0.108-2.071-1.573-3.11-2.354c1.621-1.172,1.978,0.682,3.536,0.305
						c-1.364,0.07-1.366-1.997-2.5-1.591c1.002-0.896,0.486-0.768,1.88-1.239c-2.101-0.13-0.362-0.819-1.671-1.535
						c1.012-1.291,1.965-0.354,1.298-1.75C17.869,346.62,18.638,347.86,18.638,347.86z M14.292,314.552
						c0.012,0,0.02-0.001,0.024-0.001c0.037,0.286,0.068,0.53,0.088,0.687C14.381,315.094,14.349,314.897,14.292,314.552z
						 M14.193,311.751c-0.038,0.343-0.034,0.768-0.012,1.217c-0.413,0.109-0.846,0.015-0.832-0.268
						C13.632,312.846,13.853,312.179,14.193,311.751z M6.001,317.894c-0.184-0.438,0.049-0.593,0.294-0.66
						c0.027,0.209,0.075,0.452,0.167,0.771c0.04,0.013,0.107,0.035,0.149,0.048C6.38,318.016,6.163,317.974,6.001,317.894z"/>
					<path fill="#D2D2D2" d="M7.606,318.648c0.029,0.063,0.081,0.098,0.093,0.181c0.104-0.093,0.192-0.182,0.264-0.271
						c-0.131-0.051-0.264-0.102-0.383-0.147C7.589,318.491,7.599,318.574,7.606,318.648z"/>
					<path fill="#D2D2D2" d="M3.864,65.125l-0.022,0.062c0.043-0.053,0.086-0.103,0.16-0.139C3.947,65.093,3.91,65.096,3.864,65.125
						z"/>
					<polygon fill="#D2D2D2" points="15.348,273.029 15.043,273.042 15.317,273.279 					"/>
					<path fill="#D2D2D2" d="M6.748,49.426c0.104-0.037,0.208-0.103,0.292-0.224C6.961,49.217,6.859,49.312,6.748,49.426z"/>
					<path fill="#D2D2D2" d="M6.537,42.786l0.381-0.963C6.694,42.243,6.594,42.545,6.537,42.786z"/>
					<path fill="#D2D2D2" d="M6.873,37.665c-0.215-0.053-0.375-0.063-0.521-0.072l-0.008,0.01L6.873,37.665z"/>
					<path fill="#D2D2D2" d="M14.345,118.861c0.009,0.069,0.028,0.137,0.061,0.198C14.655,119.519,14.552,119.204,14.345,118.861z"
						/>
					<path fill="#D2D2D2" d="M10.096,94.704c0.24,0.24,0.477,0.476,0.635,0.732C10.786,94.999,10.781,94.662,10.096,94.704z"/>
					<path fill="#D2D2D2" d="M15.938,146.333c-0.012-0.002-0.007-0.001-0.021-0.004c0,0.059-0.001,0.111-0.002,0.17L15.938,146.333z
						"/>
					<path fill="#D2D2D2" d="M10.788,96.566c0.21-0.451,0.137-0.809-0.057-1.13C10.679,95.796,10.58,96.223,10.788,96.566z"/>
					<path fill="#D2D2D2" d="M6.752,15.647l0.047-0.244c-0.08,0.004-0.145-0.011-0.194-0.029L6.752,15.647z"/>
					<path fill="#D2D2D2" d="M6.604,15.375l-0.146-0.271C6.46,15.228,6.471,15.335,6.604,15.375z"/>
					<path fill="#D2D2D2" d="M6.149,14.532l0.31,0.571C6.46,14.905,6.495,14.661,6.149,14.532z"/>
					<path fill="#D2D2D2" d="M6.263,22.37l0.439,0.068C6.611,22.397,6.469,22.374,6.263,22.37z"/>
					<path fill="#D2D2D2" d="M6.411,24.409c0.094-0.49,0.921-1.244,0.64-1.915l-0.349-0.056C7.356,22.741,5.668,23.964,6.411,24.409
						z"/>
					<path fill="#D2D2D2" d="M1.34,33.182l0.261-1.746C1.15,31.758,0.544,32.184,0.392,31.4C-0.886,33.645,1.411,30.905,1.34,33.182
						z"/>
					<path fill="#D2D2D2" d="M0.941,38.588C0.676,37.668,0.266,38.636,0,38.602C0.455,39.17,0.57,39.306,0.941,38.588z"/>
					<path fill="#D2D2D2" d="M3.992,77.247l-1.103,0.006C3.11,77.952,3.314,77.222,3.992,77.247z"/>
					<polygon fill="#D2D2D2" points="10.29,84.113 10.91,83.359 9.878,83.116 					"/>
					<polygon fill="#D2D2D2" points="2.869,89.129 2.685,88.832 3.185,89.983 					"/>
					<path fill="#D2D2D2" d="M5.119,153.419l1.36-0.158C6.254,152.766,4.739,152.597,5.119,153.419z"/>
					<path fill="#D2D2D2" d="M5.575,181.59c-0.679,0.294-1.121,1.078-0.461,1.577C5.213,182.537,5.746,181.916,5.575,181.59z"/>
					<polygon fill="#D2D2D2" points="4.272,265.915 3.802,265.364 4.212,266.417 					"/>
				</g>
			</g>
		</g>
	</g>
</g>
<g>
	<g>
		<g>
			<g>
				<g>
					<path fill="#D2D2D2" d="M3.826,10.173c-0.125,0.334-0.132,1.12,0.146,0.98l0.294-1.31L3.826,10.173z"/>
					<path fill="#D2D2D2" d="M5.438,12.718c0.363-0.622,0.801-1.728,0.682-2.952c-0.397,1.251-0.435,0.718-0.879,2.21
						c-0.28,0.139-0.437-0.45-0.354-0.933c-0.12,0.333-0.392-0.313-0.601,0.507c0.269,1.042,0.713,1.107,1.235,0.289
						C5.599,12.136,5.479,12.476,5.438,12.718z"/>
					<path fill="#D2D2D2" d="M31.876,14.973l-0.179-0.151C31.749,14.907,31.81,14.953,31.876,14.973z"/>
					<path fill="#D2D2D2" d="M48.329,14.39c-0.122,0.043-0.161,0.179-0.155,0.299C48.281,14.592,48.368,14.502,48.329,14.39z"/>
					<path fill="#D2D2D2" d="M51.279,15.565c-0.064-0.035-0.117-0.047-0.174-0.07C51.181,15.609,51.251,15.669,51.279,15.565z"/>
					<path fill="#D2D2D2" d="M31.876,14.973l0.46,0.389C32.345,14.927,32.096,15.061,31.876,14.973z"/>
					<path fill="#D2D2D2" d="M9.232,9.73C9.14,9.789,9.058,9.908,8.981,10.064c0.077-0.052,0.15-0.096,0.226-0.127
						C9.216,9.866,9.223,9.806,9.232,9.73z"/>
					<path fill="#D2D2D2" d="M24.646,16.289l-0.134,0.006c-0.036,0.152-0.069,0.335-0.1,0.542L24.646,16.289z"/>
					<path fill="#D2D2D2" d="M19.045,16.533c0.127,0.05,0.173-1.074,0.222-1.565c-0.072,0.462-0.166,0.683-0.277,0.769
						C18.988,15.951,19.004,16.207,19.045,16.533z"/>
					<path fill="#D2D2D2" d="M10.239,14.349l-0.164,0.147C10.119,14.45,10.189,14.409,10.239,14.349z"/>
					<path fill="#D2D2D2" d="M28.657,16.398c0.016,0.167,0.042,0.313,0.066,0.399C28.718,16.657,28.693,16.524,28.657,16.398z"/>
					<path fill="#D2D2D2" d="M182.649,2.875c0.002,0.082,0.003,0.13,0.004,0.2C182.683,2.96,182.691,2.88,182.649,2.875z"/>
					<path fill="#D2D2D2" d="M189.139,8.289l-0.087,0.063c0.001,0.214,0.003,0.423,0.004,0.63L189.139,8.289z"/>
					<path fill="#D2D2D2" d="M56.555,16.401c-0.012-0.011-0.015-0.011-0.025-0.019C56.409,16.525,56.483,16.494,56.555,16.401z"/>
					<path fill="#D2D2D2" d="M102.65,10.632c-0.556-0.989,0.812-1.315-0.013-2.408C102.724,8.663,101.978,9.999,102.65,10.632z"/>
					<path fill="#D2D2D2" d="M9.365,9.885c0.074-0.009,0.149-0.014,0.223,0C9.489,9.844,9.42,9.844,9.365,9.885z"/>
					<path fill="#D2D2D2" d="M102.638,8.224c0-0.004,0-0.009,0-0.009l-0.085-0.103C102.587,8.159,102.607,8.185,102.638,8.224z"/>
					<path fill="#D2D2D2" d="M68.219,14.263c-0.05-0.193-0.117-0.336-0.184-0.473C68.054,13.904,68.099,14.04,68.219,14.263z"/>
					<path fill="#D2D2D2" d="M59.287,13.792l0.235,0.124C59.423,13.825,59.35,13.798,59.287,13.792z"/>
					<path fill="#D2D2D2" d="M72.535,12.088c0.129,0.069,0.189,0.218,0.329,0.047c-0.022-0.055-0.042-0.093-0.067-0.13
						C72.76,12.166,72.693,12.248,72.535,12.088z"/>
					<path fill="#D2D2D2" d="M77.241,11.447c-0.037-0.082-0.079-0.141-0.118-0.212c-0.044,0.025-0.095,0.054-0.141,0.08
						L77.241,11.447z"/>
					<path fill="#D2D2D2" d="M168.456,3.303c0.094,0.318,0.148,0.668,0.189,1.014C168.594,3.517,169.289,3.245,168.456,3.303z"/>
					<path fill="#D2D2D2" d="M9.202,10.361c0.042-0.282,0.089-0.419,0.164-0.476c-0.054,0.01-0.106,0.029-0.158,0.052
						C9.185,10.103,9.174,10.261,9.202,10.361z"/>
					<path fill="#D2D2D2" d="M71.532,3.273l0.765,0.064C72.074,3.257,71.796,3.238,71.532,3.273z"/>
					<path fill="#D2D2D2" d="M134.601,1.897l0.18-0.126C134.714,1.742,134.651,1.771,134.601,1.897z"/>
					<path fill="#D2D2D2" d="M74.477,2.876c0.187,0.375,0.359,0.584,0.525,0.713c0.019-0.092,0.044-0.167,0.046-0.299L74.477,2.876z
						"/>
					<path fill="#D2D2D2" d="M168.646,4.329c0-0.006-0.001-0.012-0.001-0.012S168.646,4.322,168.646,4.329z"/>
					<path fill="#D2D2D2" d="M173.595,1.751c-0.706-0.046-0.354,1.439-0.517,2.284c-0.854,0.404-0.374-1.095-0.649-1.856
						c-0.533,0.381-0.964,1.73-1.357,1.665c-0.024-0.244-0.099-0.334-0.003-0.637c-0.584,1.164-1.658,0.026-2.347,1.489
						c-0.045-0.132-0.066-0.256-0.076-0.369c0.086,0.743,0.083,1.495,0.047,2.029c-0.32,0.021-0.62,0.918-0.714-0.051
						c0.195,0.035,0.223-0.354,0.323-0.652l-0.347,0.407c-0.263-1.397,0.471-0.463,0.499-1.493
						c-0.664,0.432-1.459,1.554-1.949,1.145c-0.063-1.361,1.183-0.417,0.552-1.647l0.758,0.545c-0.53-2.163,0.465,0.164-0.013-2.146
						c-1.001-0.428-1.155,0.654-2.154,0.223c-0.252,0.747,0.04,1.119-0.213,1.866c-1.491,1.307-1.017-3.453-2.138-1.68
						c-0.307,0.895-0.479,2.609-1.2,1.675l0.316-1.526c-0.976-0.186-0.648,2.19-1.64,1.111c0.208-0.595,0.796-0.474,0.654-0.663
						c-0.62-1.241-0.508,0.85-1.023,0.827l-0.05-1.364c-1.057,0.167-2.256,1.097-3.432,1.293c0.083-0.401,0.301-0.818,0.048-1.245
						c-1.496,0.617-3.124-0.308-4.501-1.188l-0.6,1.145c-0.125-0.02-0.208-0.542-0.06-0.762c-0.53-0.473-0.066,0.742-0.355,1.189
						c-0.318,0.066-0.381-0.695-0.164-1.037c-1.025,0.944-2.887,2.001-3.852,0.691l0.219-0.337
						c-0.777-0.519-1.031,2.355-1.718,1.223l0.154-0.2c-1.714-0.6-3.694,0.373-4.931-1.467c-0.34,1.676-1.689-0.839-1.922,1.51
						c-0.937-1.217-0.63-1.625-1.997-2.479c-0.37-0.127-0.632,1.443-1.107,1.666l0.049-1.232l-0.692,1.261l-0.264-1.49l-0.45,0.294
						c0.17,0.081,0.342,0.571,0.298,0.924c-0.704,0.522-1.617-0.936-1.605-1.567l-1.66,0.973c0.057-0.494,0.335-0.652,0.563-0.959
						c-0.917,1.219-0.1-1.305-0.94-0.186c0.094,0.284-0.089,0.731-0.118,0.979c-0.361-0.761-1.257-0.806-1.933-0.521l0.162-0.845
						c-1.189-0.268-2.541,0.297-3.89,0.245c0.47,0.411,0.306,1.88-0.092,2.009l-0.113-1.305c-0.282,0.795,0.395,0.502-0.161,1.471
						c-0.497-0.166-0.288-1.491,0.016-1.907l-0.627,0.433c-0.023-0.39,0.127-0.59,0.181-1.084c-0.277,0.801-1.018-1.34-1.424,0.053
						l-0.022-0.389c-1.35-0.053-1.975,0.375-3.075,0.408c-0.048,1.124-0.473,0.868-0.821,1.771c-0.798-0.372-1.68-1.27-2.657-1.189
						c-0.693,0.549-0.213,0.949-0.53,1.612c-0.036-1.024-1.01-0.943-0.496-1.672c-1.172,0.154-1.497,0.17-2.981,1.001
						c0.159,0.419,0.338,0.601,0.243,0.951c-0.268,0.169-0.607-0.427-0.568-0.919l0.072-0.107c-1.651,1.544-3.856-2.968-5.169-0.826
						l0.073-0.105l-1.357,1.126c-0.636-0.158,0.366-0.781-0.114-1.401c-1.452,1.753-2.359-0.178-3.553,0.996
						c-1.054-2.99-3.352,0.295-4.724-1.532l0.11,0.707c-0.297,0.716-0.422-0.383-0.676-0.532c0.064,0.55,0.394,0.618,0.208,1.016
						c-1.38,0.51-2.837,0.334-4.329-0.026c-1.49-0.363-3.016-0.827-4.497-1.025c-1.082-0.092-0.25,3.721-1.74,2.151l0.245-1.349
						c-1.97,1.737-4.353,0.445-6.26,2.031c0.084-0.318,0.037-0.711,0.24-0.732c-0.561-0.896-1.626,0.162-1.526,0.938
						c-0.333-0.046-0.17-0.692-0.422-1.061c-0.516-0.504-0.938,1.355-1.292,0.44c-0.06-0.149,0.076-0.324,0.144-0.408
						c-0.213,0.498-1.311,0.057-0.89,1.118c-0.829-0.421-1.377,0.682-2.07,0.114c-0.223,1.28-1.375-0.417-1.26,1.336
						c-0.193-1.8-1.522-1.268-1.886-0.36c0.086-0.563-0.492-0.506-0.407-1.281c-0.541,0.099-0.996,0.499-0.776,1.407
						c-1.292-2.011-1.789,2.001-2.721-0.678c-1.491,1.174-2.906,2.02-4.311,2.629c-0.177-1.796,1.589-0.387,1.283-2.257
						c-1.285,0.916-1.888,2.556-3.315,2.301c-0.386-0.199,0.104-0.803,0.185-1.124c-1.289,0.916-2.69,0.188-3.797,1.298
						c-0.017-0.167,0.093-0.365,0.202-0.516c-0.235,0.086-0.594-0.195-0.468,0.613l0.209-0.248c0.532,1.137-0.664,2.581-0.633,3.21
						c0.132-2.382-1.287-0.445-0.983-3.471c-0.141,0.172-0.295,0.582-0.194,1.122c-0.255-0.13-0.367-0.44-0.201-1.087
						c-0.814,0.544-0.405,1.374-1.194,1.447c-0.042-0.395,0.098-0.566,0.125-1.039c-0.308,0.814-0.62,1.632-1.323,1.375
						c0.013-0.243-0.099-0.543,0.1-0.561c-1.125,0.252-1.718,2.275-3.054,1.678c0.184-1.759-0.488-0.512-0.712-1.996l-0.625,0.507
						l0.346,0.695c-0.591,0.031-1.001,1.164-1.559,0.726l0.375-0.654L47.33,9.051l0.683,0.503c-0.521,0.823,0.254,1.874-0.576,1.536
						c0.146-0.165-0.596,0.039-0.989-0.808c0,0,0.002,0,0.001-0.004c-0.247,0.501-0.501,1.028-0.974,0.702
						c-0.159-0.464-0.064-1.653-0.168-1.962c-0.171,1.27-1.35,0.478-1.595,1.837c0.094-0.323,0.029-1.104-0.025-1.26l-0.151,1.034
						c-0.303-0.297-0.357-0.45-0.368-1.076c-0.839-0.106,0.429,1.862-0.621,1.143c0.07-0.089,0.02-0.237,0.166-0.405
						c-1.017-0.328-1.843,0.828-2.789,0.382c-0.385-1.48,0.758-0.421,0.352-1.664c-1.27,0.359-2.551,1.979-3.837,1.712l0.246,0.149
						c-0.032,2.128-1.009-0.982-1.579,0.059c0.146-0.167,0.129-1.188,0.103-0.95c-0.881-0.281-1.725,0.641-2.999,1.396l0.133-0.555
						c-0.534-0.439-1.352-0.217-1.911-0.445c-0.137,0.549-0.456,0.472-0.229,1.256c-1.815-3.044-3.178,1.771-4.767-0.763
						c0.179-0.012,0.414-0.491,0.272-0.486l-1.265,0.543c0.122,0.92,0.18,0.554,0.466,1.264c-0.149,0.553-0.504,0.99-0.824,1
						c0.567-0.631-0.036-1.484-0.293-1.991c0.047,0.282-0.032,0.597-0.006,0.884c-0.699-1.622-0.079,1.863-1.017,0.786l0.042-0.487
						c-0.339,0.266-0.648,0.893-1.021,0.755c-0.165-1.071,0.36-0.496,0.373-1.376c-0.515,0.058-1.007,2.017-1.486,0.948
						c0.219-0.296,0.537-0.298,0.755-0.592c-0.521-1.26-0.576-0.941-0.956-1.144l0.037,0.029l-0.874-0.576l0.223,0.342
						c-0.649,2.783-1.316,0.499-2.205,2.318c0.867-1.722,0.148-0.999,0.225-2.21C17.663,10.54,17.33,10.16,17.43,9.82
						c-0.422,0.974-0.671-0.776-1.271,0.649c-0.019-0.39-0.438-0.042-0.328-1.02c-0.537,0.302,0.113,0.68,0.06,1.168
						c-0.855,1.316-1.892-1.61-3.123,0.167c-1.044,0.696-1.286,2-2.274,2.601c-0.294-0.641,0.327-1.405,0.327-1.405
						c-0.493-0.603-0.885-0.519-1.396-0.1c0.116-0.334,0.028-0.627-0.097-1.072c-0.395,0.08-0.336,1.403-0.821,0.8
						c0.113-0.43,0.264-1.118,0.475-1.543c-0.477,0.333-0.972,1.036-1.47,1.36c-0.085-0.685,0.35-1.013,0.542-1.448
						c-0.55,0.277-1.417,0.539-1.656,1.604l0.32,0.402c-0.2,0.041-0.041-0.927,0.116-1.115c0.512-0.817,0.638,0.408,0.641,0.801
						l-0.356,0.23c0.211,2.303,1.395-0.29,2.066-0.12L8.81,13.424l0.777-1.34c0.128,0.44,0.187,1.375-0.167,1.604
						c0.457,0.848,0.467-0.567,0.851,0.373c0.041,0.145,0.016,0.224-0.031,0.287l0.508-0.468c-0.11,0.344,0.03,1.178-0.259,0.922
						c0.837,1.008,1.458-1.169,1.74,0.109l-0.077,0.099c1.231-0.498,0.162-1.21,1.109-2.603l0.523,3.017l0.152-1.22
						c0.124,0.045,0.369,0.139,0.311,0.626c0.486-0.832-0.066-0.532,0.223-1.318c0.576,1.117,1.661-0.507,1.764,1.439
						c0.23-0.926-0.563-0.72,0.088-1.36c0.152,2.094,0.746-0.353,1.281,0.612c-0.179,1.079-0.697,0.502-0.154,1.47
						c0.349-1.822,1.071,0.409,1.542,0.063c0.026-1.453,1.013-0.599,1.791-1.077c-0.048,0.48,1.473,0.828,2.209,1.324l-0.018,0.245
						c0.118-1.473,0.869-1.221,1.407-1.543c-0.002,0.88-0.093,1.23-0.382,1.633l0.514-0.024c0.111-0.475,0.266-0.728,0.594-0.907
						l-0.103,1.102c0.686-0.083,1.341-1.338,2.243-0.635c0.013-1.025-0.784-2.828,0.111-3.542c0.053,0.552,0.119,1.498-0.115,1.732
						c0.077-0.075,0.267-0.469,0.434-0.238l-0.338,0.944c0.413,0.396,0.182-0.785,0.503-0.709c0.021,0.79,0.256,0.555,0.233,1.184
						c-0.079,0.079-0.29-0.318-0.402-0.003c0.365,0.129,0.818,0.583,0.986,1.176c-0.049-0.448-0.041-1.063,0.219-1.174
						c0.679-0.081,0.271,0.941,0.688,1.333c0.143-0.553,0.604,0,0.563-1.18c0.2-0.001,0.262,0.548,0.354,0.865
						c0.33-0.532,1.646-0.204,1.185-1.445l-0.095-0.08c0.016-0.025,0.036-0.026,0.055-0.054c-0.003,0,0,0-0.003,0l0.003,0
						c1.089-1.227,2.428,0.512,3.544-0.066l0.022,0.395c0.654-0.497,1.503-0.37,1.931-1.25c0.201-0.013,0.526,0.686,0.473,1.162
						c0.501-0.332,0.526-0.778,1.328-0.18c-0.474,0.723,0.227,0.597-0.501,0.54c0.704,0.294,0.909,0.914,1.555-0.213
						c-0.17,1.026,0.613,1.235,0.913,0.912l-0.535-0.688c0.352-0.172,0.676-0.104,1.006-0.041l-0.065,1.338
						c1.535,1.493,2.263-2.981,3.562-0.38c0.282-0.962-0.813-0.58-0.583-1.696c0.651,0.118,1.494,1.956,1.696,1.94
						c0.948,0.65,0.631-2.014,1.593-1.6c-0.164-0.46-0.397-1.711,0.237-2.221c0.651,0.114,0.983,1.906,0.618,2.324
						c-0.149,0.054-0.238-0.088-0.248-0.249c-0.189,0.191-0.439,0.42-0.135,0.908l0.036-0.48c0.365,0.452,1.24,0.316,1.113,1.111
						c0.438-0.497,0.126-0.794-0.256-1.004c0.89,0.604,1.283-0.1,2.174,0.272c-0.161-0.245-0.344-0.785-0.21-0.795
						c1.293,0.441,0.445-0.958,1.254-1.262c0.552,0.664,0.02,1.737,0.792,1.037c0.567,0.427,0.249,1.239,0.086,1.647
						c0.665-0.999,1.5,0.431,1.958,0.547l-0.361,0.427c0.216-0.254,0.415-0.271,0.617-0.292l-0.339-0.916
						c0.256,0.136,0.457,0.117,0.498,0.51c0.173-0.646-0.367-1.547,0.019-2.449c0.371,0.443,0.899-0.625,1.155,0.613
						c-1.042-0.309,0.257,1.245-0.561,1.544c0.145-0.168,0.344-0.186,0.601-0.047c0.052,0.136-0.003,0.263-0.06,0.342
						c1.084,1.007,0.271-1.466,1.259-1.551c-0.041,0.719,0.389,1.311,0.532,1.141c-0.399,0.032-0.331-1.154-0.032-1.736
						c0.698,0.475,0.636-0.488,0.974-0.462l-0.408-0.215c0.042-0.719,0.368-0.663,0.779-0.937c0.105,0.544-0.352,0.424-0.166,0.648
						c0.334-1.293,1.26,1.15,1.833,0.227c0.374,0.436,0.196,1.32,0.513,1.608c0.646-1.012,0.945,0.858,1.65,0
						c-0.351-0.917-0.361-0.68,0.083-1.676l-1.228,0.836l0.668-1.486c-0.397,0.038-0.76,0.703-1.018,0.573
						c0.304-0.824,0.292-0.583,0.004-1.345c0.721,1.351,0.968-0.966,1.715-0.088l0.28,2.346c1.077,0.923,1.52-1.418,2.819-0.987
						l-0.446-0.357c0.042-0.953,0.738-0.228,1.084-0.656c0.066,0.788,0.351,1.04,0.584,1.506c-0.097-0.578,0.903-0.063,0.807-1.641
						l0.683,0.96c1.044,0.292,0.828-2.381,1.811-2.242c-0.17,0.889,0.335,1.386-0.218,2.08c0.318-0.035,0.622,0.07,0.554-0.474
						c0.251,0.466,0.735-1.172,1.127-0.468c0.087-0.361,0.019-1.187,0.382-1.17c0.061,0.153,0.051,0.386,0.051,0.386
						c-0.051-0.386,0.484-0.601,0.056-1.425c1.309,2.31,2.696-0.545,3.836,1.437c0.654-0.355,1.452-0.72,2.068-0.86
						c-0.007,0.239,0.054,0.39-0.076,0.324c0.955,0.617,0.212-2.313,1.302-1.626c0.668,1.201-0.425,0.75-0.05,1.19
						c0.48,2.558,1.125-0.502,1.973,0.918l-0.138,0.172c0.606,0.813,1.09-1.132,1.931-1.053c0,0-0.013,0.233,0.041,0.39
						c0.401-1.38,1.413-1.977,2.167-2.41C86.203,9.313,86.04,8.847,86.3,9.861c0.338-0.178-0.282-1.64,0.397-1.992
						c0.29,0.533,0.85,0.97,1.027,2.061l-0.657,0.12c0.485,1.389,0.852-0.126,1.227,0.088l0.017,0.624
						c0.991-0.293,0.861-1.859,1.969-1.848l-0.155-0.46c0.468-1.605,0.578,0.827,1.08-0.381l0.31,1.557
						c0.362-0.411,1.262-1.662,1.959-1.987c-0.323,1.183-1.107,1.851-1.561,2.595c0.39-0.026,1.313-0.237,1.463-1.017
						c-0.147,0.162-0.318,0.557-0.492,0.326c0.389-1.268,0.985-1.913,1.775-1.932c0.059,3.062,2.096,0.651,2.793,2.991
						c1.318-1.217,2.749,0.319,4.342,0.106c-0.655-2.363,0.467-0.081,0.285-2.523c0.372-0.167,0.518-0.131,0.556,0.026l1.183,1.427
						c0.289,0.704-0.341,0.55-0.292,1.097c0.823,0.163,0.372,1.025,0.927,1.66c-0.133-0.871,0.252-1.261,0.725-0.94l-0.682-1.108
						c1.118-1.334,1.031,2.021,2.156,0.702l-0.351,0.779c0.582-0.472,2.176,0.001,2.742-1.97c0.107,0.282,0.251,0.95-0.008,1.128
						c1.412,0.289,3.155-2.106,4.257-0.901l-0.111,0.598c0.265-0.176,0.469-1.119,0.797-0.513c-0.019,0.247-0.111,0.595,0.011,0.632
						c0.141-0.204,0.714-1.037,1.063-0.683l-0.308,0.668c1.375,0.805,2.149-1.606,3.328-1.998c-0.035,1.76,1.044,2.349,1.581,2.643
						l-0.025,0.249c1.606,0.253,2.783-1.376,4.309-2.023c0.871,1.941,3.127,0.89,4.588,2.036c-0.216-0.33,0.092-1.37,0.366-1.535
						c0.337,0.371,1.025-1.179,0.902,0.432l-0.124-0.036c0.199,1.594,0.939,1.204,1.502,1.271l0.186-2.106
						c1.338,3.127,3.932-0.955,4.612,1.838c0.383-0.51,0.826-0.482,1.207-0.991l-0.075,1.13c0.976,0.338,1.463,0.504,2.701,0.296
						l-0.291,0.796c0.686,0.11,1.04-3.218,1.683-3.25l0.104,1.698c1.21,0.037,2.356,1.584,3.63,0.116
						c-0.033,0.247-0.094,0.732-0.293,0.79c0.566,0.074,2.141,1.259,2.055-1.069c-0.065,1.51,1.24,0.213,1.93-0.42l-0.16,1.108
						c0.626-1.394,0.664-1.782,1.455-2.137c0.175,0.155,0.114,0.899-0.114,0.603c0.579,0.614,0.528-1.03,1.236-0.4l-0.311,0.697
						c0.623,0.118,0.592-0.267,0.978-1.078c0.416-0.427,1.173,0.341,1.216,1.353c0.115-0.609,0.498-1.413,0.853-1.104
						c0.032,0.383-0.114,0.612-0.188,0.724c1.01,0.813,1.621-1.221,2.29-0.094c-0.002,0.369,0.036,0.556,0.091,0.67
						c-0.833-0.064-1.502-0.155-1.436-0.233c-0.05,1.026,0.617,1.237,0.012,2.63c0.581-0.75,1.584-2.39,2.219-1.878
						c0.027,0.101,0.054,0.2,0.071,0.359l-0.073,0.112c0.147,0.109,0.287,0.02,0.423-0.147c0.202,0.178,0.33,0.309,0.531,0.333
						c0.04,0.853,0.754,0.493,1.089,0.55c0.021-1.125,0.453-0.925,0.08-1.871c0.05,0.083-0.069,0.132-0.294,0.168
						c-0.052,0.031-0.112,0.045-0.148,0.11c0.008-0.029,0.018-0.063,0.027-0.098c-0.222,0.022-0.511,0.035-0.838,0.038
						c0.291-0.559,0.589-1.026,0.933-0.387c0.204-0.714,0.425-1.448,0.546-1.792c0.391,1.587,1.243,2.474,1.327,3.445
						c1.051-0.579,2.445-0.329,3.165-2.414c0.301-0.261,0.314,0.616,0.412,0.952c-0.176,0.206-0.375,0.167-0.478,0.467
						c0.604-0.522,1.74-0.152,1.927-1.622c0.714,0.69-0.458,1.343,0.562,1.137l-0.151,0.446c1.931,2.433,3.335-3.666,5.469-0.601
						c-0.149-0.188-0.224-0.276-0.25-0.523c1.246,0.691,2.551,0.402,3.845,0.211c1.298-0.206,2.583-0.332,3.83,0.729
						c0.71,0.427,0.784-0.516,1.212-1.233l0.159,1.208l0.729-1.394c1.028-1.014,1.847,2.955,3.149,0.99l-0.186-0.809
						c0.479,0.142,1.495-0.516,1.438,0.421c0.045-0.149,0.136-0.85,0.332-0.43l0.029,0.631l1.141-1.111
						c0.919,0.435-0.071,2.511,1.263,2.603c0.489-0.255,1.342-1.873,1.141-2.291c-0.199-0.026-0.521-0.382-0.558-1.014l0.436-0.339
						c0.015-1.863,0.277-3.777-0.846-5.051l-0.714,1.156l-0.271-0.897l0.63-0.072c-0.386-0.841-0.588-0.084-0.828,0.438
						c-0.074-0.479-0.189-0.812-0.343-0.987l-0.689,1.795c-0.108-0.726,0.292-1.453-0.212-1.843
						c-0.325,0.834,0.374,1.625-0.187,2.181c-0.382-0.836-0.291-1.529-0.697-0.796c-0.07-0.478,0.013-0.786,0.175-1
						c-0.362,0.584-0.986,0.267-1.163,1.262c-0.393-1.036-1.267,0.302-1.254-1.461c-0.111,0.425-0.644,1.401-0.99,1.47
						c0.61-2.11-1.298-0.124-1.146-2.386c-0.454,1.897-1.679,0.843-2.507,1.896c0.047-0.15,0.138-0.456,0.211-0.359
						c-0.466-0.157-0.6-0.729-0.897-1.087c-0.064,1.567-0.793,1.926-1.193,2.893c-0.562-1.512,0.361-1.841,0.19-3.293
						c0.021,1.271-1,1.269-0.815,2.327c-0.429-0.934-0.374-0.458-0.585-1.761c-0.099,1.958-0.411,0.325-0.789,1.521
						c-0.622-0.978-0.139-1.839-0.842-1.256C172.967,2.434,173.595,1.751,173.595,1.751z M156.902,4.604
						c0-0.011,0-0.019,0.001-0.022c0.145-0.02,0.268-0.037,0.347-0.048C157.177,4.548,157.077,4.569,156.902,4.604z M155.5,4.56
						c0.168,0.051,0.38,0.069,0.605,0.071c0.031,0.39-0.041,0.787-0.181,0.76C156.013,5.135,155.693,4.896,155.5,4.56z
						 M158.123,12.476c-0.231,0.149-0.296-0.075-0.317-0.307c0.107-0.015,0.232-0.047,0.397-0.117
						c0.009-0.039,0.022-0.093,0.032-0.136C158.205,12.13,158.172,12.33,158.123,12.476z"/>
					<path fill="#D2D2D2" d="M158.589,11.021c0.033-0.024,0.053-0.07,0.095-0.078c-0.041-0.102-0.081-0.188-0.122-0.259
						c-0.032,0.119-0.064,0.238-0.095,0.349C158.509,11.029,158.551,11.024,158.589,11.021z"/>
					<path fill="#D2D2D2" d="M31.666,14.797l0.031,0.024c-0.027-0.044-0.052-0.087-0.071-0.158
						C31.649,14.718,31.651,14.753,31.666,14.797z"/>
					<polygon fill="#D2D2D2" points="136.198,1.421 136.187,1.705 136.322,1.463 					"/>
					<path fill="#D2D2D2" d="M23.792,11.2c-0.017-0.098-0.047-0.2-0.106-0.285C23.691,10.989,23.737,11.089,23.792,11.2z"/>
					<path fill="#D2D2D2" d="M20.476,10.974l-0.469-0.404C20.21,10.799,20.357,10.909,20.476,10.974z"/>
					<path fill="#D2D2D2" d="M17.936,10.396c-0.034,0.197-0.044,0.345-0.054,0.481l0.005,0.008L17.936,10.396z"/>
					<path fill="#D2D2D2" d="M58.198,6.345c0.034-0.01,0.065-0.029,0.092-0.062C58.493,6.041,58.347,6.144,58.198,6.345z"/>
					<path fill="#D2D2D2" d="M46.449,10.278c0.108-0.215,0.215-0.427,0.336-0.566C46.562,9.647,46.393,9.641,46.449,10.278z"/>
					<path fill="#D2D2D2" d="M71.448,3.265c0,0.009,0,0.008,0.001,0.02c0.028-0.008,0.054-0.007,0.083-0.011L71.448,3.265z"/>
					<path fill="#D2D2D2" d="M47.348,9.678c-0.237-0.203-0.411-0.137-0.563,0.034C46.968,9.771,47.187,9.865,47.348,9.678z"/>
					<path fill="#D2D2D2" d="M6.988,9.501L6.87,9.449C6.867,9.523,6.855,9.583,6.843,9.628L6.988,9.501z"/>
					<path fill="#D2D2D2" d="M6.843,9.628L6.7,9.753C6.762,9.756,6.816,9.75,6.843,9.628z"/>
					<path fill="#D2D2D2" d="M6.396,10.02L6.7,9.753C6.601,9.745,6.482,9.703,6.396,10.02z"/>
					<path fill="#D2D2D2" d="M10.304,10.207l0.057-0.406C10.337,9.884,10.317,10.015,10.304,10.207z"/>
					<path fill="#D2D2D2" d="M11.327,10.145c-0.239-0.106-0.57-0.903-0.919-0.667l-0.046,0.322
						C10.546,9.204,11.066,10.819,11.327,10.145z"/>
					<path fill="#D2D2D2" d="M15.482,15.308l-0.868-0.333c0.142,0.436,0.332,1.021-0.07,1.122
						C15.623,17.402,14.338,15.124,15.482,15.308z"/>
					<path fill="#D2D2D2" d="M18.194,15.96c-0.474,0.198,0,0.631-0.025,0.875C18.472,16.442,18.544,16.342,18.194,15.96z"/>
					<path fill="#D2D2D2" d="M37.822,15.287l0.025,1.024C38.2,16.14,37.823,15.915,37.822,15.287z"/>
					<polygon fill="#D2D2D2" points="41.121,9.757 40.723,9.151 40.636,10.097 					"/>
					<polygon fill="#D2D2D2" points="43.941,16.808 43.795,16.969 44.366,16.541 					"/>
					<path fill="#D2D2D2" d="M76.541,12.544l-0.282-1.234C76.049,11.567,76.193,12.977,76.541,12.544z"/>
					<path fill="#D2D2D2" d="M90.217,9.631c0.206,0.614,0.627,0.982,0.814,0.343C90.714,9.917,90.362,9.456,90.217,9.631z"/>
					<polygon fill="#D2D2D2" points="131.991,11.342 131.691,11.751 132.237,11.423 					"/>
				</g>
			</g>
		</g>
	</g>
</g>
<g>
	<g>
		<g>
			<g>
				<g>
					<path fill="#D2D2D2" d="M84.603,16.104c-0.278-0.211-0.988-0.535-0.936-0.313l1.119,0.712L84.603,16.104z"/>
					<path fill="#D2D2D2" d="M81.861,16.002c0.472,0.473,1.355,1.207,2.495,1.657c-1.027-0.771-0.533-0.568-1.771-1.459
						c-0.054-0.223,0.522-0.069,0.941,0.181c-0.272-0.209,0.389-0.104-0.305-0.566c-1.021-0.271-1.192-0.046-0.585,0.608
						C82.347,16.342,82.07,16.127,81.861,16.002z"/>
					<path fill="#D2D2D2" d="M71.372,29.092l0.19,0.003C71.474,29.069,71.414,29.071,71.372,29.092z"/>
					<path fill="#D2D2D2" d="M64.677,36.894c0.023-0.082-0.061-0.189-0.153-0.267C64.548,36.738,64.576,36.836,64.677,36.894z"/>
					<path fill="#D2D2D2" d="M62.438,37.349c0.057-0.003,0.091-0.016,0.135-0.024C62.453,37.28,62.375,37.268,62.438,37.349z"/>
					<path fill="#D2D2D2" d="M71.372,29.092l-0.498-0.015C71.216,29.341,71.217,29.146,71.372,29.092z"/>
					<path fill="#D2D2D2" d="M83.542,19.566c-0.027-0.083-0.111-0.186-0.23-0.303c0.026,0.07,0.045,0.135,0.052,0.194
						C83.426,19.496,83.478,19.527,83.542,19.566z"/>
					<path fill="#D2D2D2" d="M73.035,24.777l0.042-0.071c-0.123-0.104-0.262-0.223-0.414-0.353L73.035,24.777z"/>
					<path fill="#D2D2D2" d="M74.693,21.764c-0.083,0.04,0.858,0.656,1.259,0.94c-0.37-0.282-0.526-0.447-0.563-0.551
						C75.207,22.04,74.984,21.914,74.693,21.764z"/>
					<path fill="#D2D2D2" d="M79.173,18.055l-0.089-0.162C79.114,17.939,79.133,17.999,79.173,18.055z"/>
					<path fill="#D2D2D2" d="M71.455,26.681c-0.141-0.089-0.269-0.162-0.35-0.2C71.222,26.56,71.339,26.625,71.455,26.681z"/>
					<path fill="#D2D2D2" d="M18.452,108.258c-0.071-0.038-0.115-0.061-0.177-0.094C18.366,108.235,18.434,108.278,18.452,108.258z"
						/>
					<path fill="#D2D2D2" d="M11.626,109.25l-0.028-0.077c-0.19-0.098-0.375-0.194-0.56-0.289L11.626,109.25z"/>
					<path fill="#D2D2D2" d="M59.306,38.913c0.014,0.003,0.015,0.001,0.026,0.002C59.285,38.77,59.273,38.821,59.306,38.913z"/>
					<path fill="#D2D2D2" d="M40.51,61.774c0.978,0.412,0.603,1.267,1.778,1.624C41.926,63.142,41.28,61.891,40.51,61.774z"/>
					<path fill="#D2D2D2" d="M83.368,19.578c-0.013,0.049-0.028,0.097-0.062,0.135C83.371,19.671,83.389,19.629,83.368,19.578z"/>
					<path fill="#D2D2D2" d="M42.288,63.397c0.003,0.002,0.006,0.006,0.006,0.006l0.114,0.03
						C42.359,63.419,42.33,63.41,42.288,63.397z"/>
					<path fill="#D2D2D2" d="M55.091,44.984c0.16,0.118,0.293,0.193,0.422,0.263C55.424,45.174,55.306,45.096,55.091,44.984z"/>
					<path fill="#D2D2D2" d="M59.876,41.816l-0.201,0.009C59.788,41.849,59.842,41.837,59.876,41.816z"/>
					<path fill="#D2D2D2" d="M54.429,48.196c-0.114,0-0.248-0.083-0.202,0.092c0.05,0.031,0.086,0.05,0.125,0.067
						C54.26,48.227,54.238,48.143,54.429,48.196z"/>
					<path fill="#D2D2D2" d="M52.457,50.452l0.207,0.108c0.005-0.035,0.012-0.076,0.017-0.111L52.457,50.452z"/>
					<path fill="#D2D2D2" d="M22.374,100.361c-0.302-0.113-0.619-0.263-0.927-0.418C22.148,100.327,22.169,100.842,22.374,100.361z"
						/>
					<path fill="#D2D2D2" d="M82.987,19.264c0.24,0.153,0.35,0.243,0.38,0.314c0.006-0.037,0.002-0.078-0.003-0.12
						C83.222,19.37,83.084,19.292,82.987,19.264z"/>
					<path fill="#D2D2D2" d="M61.042,54.107L60.6,54.36C60.771,54.331,60.929,54.236,61.042,54.107z"/>
					<path fill="#D2D2D2" d="M34.48,83.164l0.039,0.168C34.564,83.315,34.563,83.265,34.48,83.164z"/>
					<path fill="#D2D2D2" d="M59.781,55.544c-0.355-0.196-0.589-0.28-0.764-0.308c0.054,0.073,0.092,0.138,0.181,0.233
						L59.781,55.544z"/>
					<path fill="#D2D2D2" d="M21.436,99.938c0.005,0.002,0.011,0.005,0.011,0.005S21.441,99.94,21.436,99.938z"/>
					<path fill="#D2D2D2" d="M22.147,103.918c0.253-0.355-1.138-0.913-1.819-1.425c-0.087-0.667,1.061,0.348,1.802,0.583
						c-0.168-0.478-1.199-1.394-1.022-1.575c0.218,0.111,0.318,0.116,0.55,0.322c-0.823-0.908,0.483-0.909-0.561-2.034
						c0.127,0.043,0.24,0.096,0.339,0.148c-0.664-0.335-1.308-0.722-1.755-1.016c0.083-0.186-0.598-0.815,0.26-0.368
						c-0.088,0.091,0.237,0.306,0.463,0.515l-0.246-0.402c1.274,0.574,0.258,0.5,1.131,1.043c-0.174-0.586-0.898-1.609-0.403-1.668
						c1.181,0.672,0.007,0.87,1.244,1.159l-0.689,0.136c2.006,0.825-0.276,0.17,1.84,1.1c0.656-0.325-0.223-0.969,0.435-1.292
						c-0.563-0.528-0.965-0.563-1.527-1.092c-0.632-1.488,3.265,1.27,2.115-0.261c-0.662-0.636-2.061-1.636-1.036-1.529l1.192,0.979
						c0.469-0.421-1.645-1.509-0.422-1.472c0.438,0.43,0.153,0.682,0.357,0.707c1.243,0.328-0.56-0.727-0.379-0.994l1.167,0.703
						c0.187-0.658-0.223-1.807-0.019-2.552c0.31,0.263,0.591,0.607,1.029,0.703c-0.041-1.138,1.206-1.532,2.401-1.757l-0.754-0.955
						c0.058-0.055,0.517,0.192,0.651,0.393c0.566-0.016-0.594-0.448-0.87-0.851c0.05-0.206,0.701,0.186,0.914,0.492
						c-0.449-1.067-0.701-2.66,0.693-2.429l0.206,0.308c0.678-0.116-1.597-1.888-0.441-1.609l0.114,0.196
						c1.058-0.563,0.899-2.198,2.824-1.766c-1.24-1.158,1.264-0.381-0.554-1.883c1.31,0.23,1.531,0.629,2.691,0.431
						c0.229-0.115-0.941-1.184-0.954-1.563l0.972,0.76l-0.77-1.111l1.284,0.754l-0.08-0.409c-0.124,0.04-0.576-0.165-0.843-0.398
						c-0.173-0.682,1.313-0.274,1.811,0.114l-0.191-1.438c0.372,0.33,0.4,0.567,0.564,0.87c-0.647-1.208,1.07,0.741,0.476-0.367
						c-0.257-0.125-0.548-0.49-0.735-0.656c0.731,0.278,1.075-0.153,1.101-0.667l0.607,0.6c0.644-0.433,0.69-1.461,1.239-2.092
						c-0.497-0.023-1.587-1.016-1.538-1.296l1.063,0.756c-0.516-0.635-0.541-0.116-1.09-0.996c0.317-0.145,1.274,0.786,1.485,1.195
						l-0.104-0.581c0.313,0.232,0.413,0.432,0.779,0.767c-0.521-0.638,1.423,0.337,0.489-0.736l0.311,0.232
						c0.542-0.632,0.442-1.211,0.829-1.775c-0.85-0.737-0.488-0.78-1.051-1.525c0.594-0.154,1.625-0.005,1.953-0.523
						c-0.146-0.687-0.642-0.714-1.023-1.294c0.798,0.643,1.122,0.123,1.475,0.84c0.351-0.659,0.454-0.834,0.428-2.075
						c-0.383-0.199-0.595-0.233-0.821-0.506c-0.017-0.236,0.575-0.007,0.931,0.333l0.051,0.103
						c-0.479-1.791,3.815,0.159,2.745-1.865l0.049,0.104l-0.275-1.378c0.394-0.179,0.421,0.686,1.091,0.886
						c-0.671-1.822,1.154-0.93,0.804-2.253c2.657,1.559,1.228-1.708,3.2-1.024l-0.563-0.438c-0.386-0.617,0.469,0.083,0.692,0.079
						c-0.428-0.351-0.626-0.257-0.831-0.61c0.51-1.872,3.169-2.005,4.843-2.921c0.579-0.365-2.506-2.723-0.686-2.214l0.832,1.052
						c-0.307-2.046,1.843-1.982,1.696-3.858c0.177,0.26,0.473,0.524,0.385,0.617c0.901,0.429,0.708-0.735,0.123-1.256
						c0.201-0.094,0.563,0.433,0.944,0.602c0.608,0.166-0.462-1.331,0.352-0.811c0.134,0.084,0.183,0.264,0.205,0.351
						c-0.23-0.442,0.643-0.553-0.303-1.154c0.72-0.02,0.248-1.028,0.998-0.89c-0.765-1.006,1.002-0.237-0.264-1.45
						c1.34,1.216,1.667,0.314,1.229-0.477c0.344,0.437,0.605,0.17,1.097,0.758c0.215-0.281,0.173-0.748-0.57-1.311
						c2.063,0.918-0.466-2.137,1.874-0.606c-0.051-1.438,0.08-2.605,0.371-3.598c1.354,1.192-0.542,0.912,0.926,2.108
						c0.02-1.168-0.828-2.562,0.083-2.957c0.339-0.016,0.515,0.604,0.699,0.862c0.015-1.16,1.256-1.216,1.004-2.473
						c0.128,0.109,0.214,0.293,0.269,0.445c0.055-0.16,0.435-0.118-0.206-0.625l0.074,0.261c-1.075-0.566-1.52-2.072-1.988-2.493
						c1.644,1.704,0.953-0.234,2.978,1.983c-0.054-0.18-0.272-0.527-0.71-0.857c0.22-0.018,0.499,0.146,0.882,0.665
						c0.014-0.723-0.789-1.119-0.451-1.504c0.307,0.253,0.36,0.43,0.688,0.767c-0.435-0.691-0.872-1.382-0.339-1.505
						c0.169,0.171,0.443,0.329,0.357,0.425c0.378-0.654-0.806-2.275,0.29-2.435c1.195,1.263,0.618,0.14,1.813,1.038l-0.071-0.618
						l-0.678-0.315c0.26-0.284-0.372-1.215,0.209-1.176l0.308,0.607l0.217-0.747l-0.692-0.027c-0.369-0.784-1.509-1.137-0.874-1.283
						c0.056,0.174,0.245-0.291,1.06,0.093c0,0,0,0.001,0.002,0.003c-0.26-0.443-0.537-0.903-0.074-0.9
						c0.422,0.234,1.269,1.059,1.549,1.216c-0.873-0.913,0.273-0.928-0.639-1.926c0.2,0.252,0.82,0.733,0.962,0.81l-0.71-0.742
						c0.365,0.056,0.506,0.131,0.985,0.533c0.472-0.313-1.608-1.015-0.576-1.023c0.035,0.089,0.171,0.163,0.23,0.338
						c0.726-0.249,0.232-1.364,0.985-1.528c1.308,0.763-0.016,0.627,1.118,1.231c0.293-0.846-0.368-2.456,0.383-2.917l-0.222,0.027
						c-1.648-1.343,1.197,0.12,0.627-0.808c0.068,0.174,0.877,0.798,0.702,0.637c0.6-0.262,0.239-1.249,0.18-2.325l0.385,0.4
						c0.587,0.009,0.73-0.552,1.139-0.704c-0.386-0.397-0.197-0.514-0.919-0.863c3.188,0.847-0.164-2.635,2.514-2.008
						c-0.058,0.103,0.247,0.501,0.297,0.422l0.029-0.984c-0.807-0.452-0.526-0.215-1.22-0.464c-0.401-0.39-0.632-0.82-0.524-0.992
						c0.314,0.648,1.243,0.811,1.762,0.955c-0.251-0.132-0.484-0.35-0.732-0.496c1.61,0.53-1.52-1.075-0.278-0.969l0.391,0.29
						c-0.091-0.322-0.523-0.839-0.28-0.964c0.954,0.492,0.296,0.467,1.028,0.955c0.129-0.319-1.357-1.646-0.296-1.33
						c0.176,0.279,0.072,0.454,0.246,0.733c1.236,0.394,0.988,0.188,1.288,0.086l-0.037,0.005l0.787-0.183l-0.366-0.057
						c-2.142-1.831,0.026-0.997-1.23-2.43c1.183,1.365,0.805,0.599,1.816,1.267c0.364,0.052,0.804,0.06,1.062,0.291
						c-0.691-0.736,0.901,0.014-0.12-1.047c0.343,0.187,0.187-0.225,0.995,0.33c-0.075-0.456-0.627-0.277-1.031-0.554
						c-0.846-1.125,2.045-0.277,0.843-1.884c-0.328-0.963-1.413-1.72-1.691-2.573c0.645,0.124,1.158,0.843,1.158,0.843
						c0.663-0.013,0.694-0.289,0.456-0.781c0.267,0.22,0.551,0.302,0.981,0.427c0.035-0.273-1.163-0.832-0.496-0.85
						c0.355,0.259,0.93,0.656,1.252,0.975c-0.168-0.439-0.665-1.047-0.825-1.486c0.639,0.249,0.817,0.653,1.154,0.962
						c-0.099-0.456-0.101-1.093-1-1.69l-0.447,0.016c0.015-0.135,0.847,0.376,0.975,0.551c0.599,0.661-0.538,0.205-0.891,0.033
						l-0.114-0.312c-2.125-0.885-0.102,0.945-0.436,1.276l-1.37-0.961l0.992,1.062c-0.425-0.125-1.27-0.519-1.383-0.828
						c-0.869-0.125,0.383,0.531-0.548,0.32c-0.139-0.043-0.202-0.094-0.246-0.15l0.285,0.509c-0.276-0.224-1.048-0.531-0.749-0.577
						c-1.098,0.002,0.661,1.386-0.534,0.941l-0.067-0.091c0.122,0.944,1.026,0.671,1.988,1.893l-2.789-1.18l1.018,0.682
						c-0.076,0.046-0.23,0.136-0.637-0.137c0.58,0.679,0.482,0.226,1.08,0.775c-1.138-0.235-0.106,1.157-1.814,0.23
						c0.722,0.593,0.806,0.063,1.144,0.738c-1.853-0.984,0.058,0.581-0.948,0.376c-0.865-0.652-0.204-0.628-1.209-0.84
						c1.447,1.126-0.697,0.354-0.551,0.779c1.228,0.777,0.18,0.852,0.331,1.521c-0.396-0.286-1.162,0.346-1.842,0.44l-0.198-0.144
						c1.188,0.87,0.706,1.115,0.779,1.569c-0.729-0.494-0.986-0.735-1.218-1.104l-0.163,0.271c0.354,0.322,0.508,0.542,0.538,0.809
						l-0.873-0.672c-0.167,0.39,0.624,1.434-0.306,1.468c0.831,0.6,2.619,1.233,2.849,2.096c-0.472-0.292-1.269-0.805-1.369-1.057
						c0.032,0.082,0.279,0.403,0.025,0.354l-0.638-0.712c-0.482-0.025,0.57,0.543,0.382,0.658c-0.651-0.446-0.551-0.195-1.053-0.571
						c-0.034-0.084,0.37,0.042,0.157-0.195c-0.247,0.104-0.789,0.063-1.334-0.202c0.382,0.237,0.879,0.599,0.869,0.792
						c-0.196,0.38-0.868-0.418-1.343-0.446c0.393,0.394-0.229,0.292,0.738,0.968c-0.076,0.098-0.542-0.196-0.832-0.339
						c0.302,0.475-0.464,0.92,0.706,1.438l0.101,0.001c0.014,0.023,0.007,0.034,0.021,0.06l0.001-0.002l-0.001,0.002
						c0.544,1.269-1.408,0.842-1.405,1.719l-0.32-0.232c0.121,0.614-0.329,0.933,0.181,1.686c-0.072,0.105-0.758-0.185-1.104-0.507
						c0.041,0.435,0.375,0.729-0.436,0.716c-0.355-0.671-0.56-0.274-0.202-0.567c-0.532,0.134-1.096-0.169-0.506,0.837
						c-0.717-0.728-1.213-0.51-1.093-0.17l0.759,0.199c-0.02,0.268-0.211,0.372-0.402,0.479l-0.998-0.887
						c-1.81-0.299,1.247,2.906-1.303,1.78c0.599,0.75,0.804,0.027,1.543,0.853c-0.386,0.209-2.147-0.631-2.225-0.536
						c-0.91-0.023,1.227,1.596,0.483,1.74c0.417,0.235,1.458,0.96,1.547,1.579c-0.383,0.212-1.862-0.842-2.009-1.277
						c0.027-0.101,0.173-0.044,0.297,0.059c-0.057-0.208-0.115-0.468-0.615-0.662L64.25,36.3c-0.5-0.142-0.792,0.321-1.326-0.264
						c0.165,0.513,0.53,0.583,0.862,0.562c-0.86-0.03-0.521,0.607-1.214,0.727c0.257,0.099,0.742,0.387,0.685,0.449
						c-0.947,0.232,0.488,0.826,0.318,1.364c-0.752-0.222-1.279-1.166-1.14-0.376c-0.585-0.058-1.023-0.739-1.244-1.08
						c0.41,0.946-1.032,0.314-1.333,0.418l-0.139-0.436c0.082,0.259-0.001,0.35-0.082,0.446l0.827,0.488
						c-0.221,0.01-0.303,0.104-0.608-0.147c0.386,0.511,1.298,0.907,1.765,1.68c-0.499-0.152,0.019,0.796-0.999,0.051
						c0.724-0.211-1.022-0.75-0.848-1.285c0.052,0.173-0.03,0.265-0.252,0.274c-0.123-0.072-0.188-0.182-0.219-0.258
						c-1.243-0.257,0.93,1.115,0.518,1.574c-0.499-0.512-1.128-0.747-1.075-0.573c0.167-0.182,0.988,0.663,1.263,1.187
						c-0.675-0.046,0.045,0.596-0.136,0.716l0.351-0.017c0.495,0.515,0.297,0.61,0.294,0.968c-0.439-0.336-0.133-0.438-0.383-0.518
						c0.766,1.04-1.43-0.291-1.066,0.573c-0.497-0.158-1.035-0.842-1.397-0.92c0.394,0.958-1.081-0.231-0.826,0.641
						c0.823,0.505,0.662,0.334,1.142,1.206l0.025-1.064l0.715,1.3c0.173-0.183-0.115-0.79,0.106-0.799
						c0.431,0.694,0.266,0.522,0.95,0.94c-1.318-0.66,0.194,1.057-0.803,0.737l-1.796-1.535c-1.189-0.229,0.238,1.588-0.718,1.792
						l0.474,0.078c0.647,0.689-0.211,0.449-0.084,0.888c-0.585-0.532-0.904-0.598-1.347-0.837c0.454,0.372-0.408,0.395,0.743,1.477
						l-1.013-0.416c-0.727,0.197,1.24,2.013,0.645,2.297c-0.531-0.7-1.131-0.859-1.334-1.567c-0.136,0.147-0.362,0.19,0.05,0.551
						c-0.448-0.235,0.436,1.118-0.252,0.766c0.206,0.291,0.812,0.855,0.612,0.982c-0.137-0.086-0.293-0.256-0.293-0.256
						c0.293,0.256,0.166,0.615,0.956,1.04c-2.268-1.152-1.013,1.425-2.962,0.438c-0.091,0.505-0.25,1.071-0.471,1.409
						c-0.16-0.175-0.294-0.261-0.183-0.264c-0.915-0.071,1.479,1.753,0.448,1.683c-1.169-0.603-0.298-0.707-0.792-0.876
						c-2.006-1.653-0.234,0.803-1.649,0.116l-0.047-0.178c-0.874-0.343,0.22,1.243-0.271,1.516c0,0-0.155-0.172-0.292-0.263
						c0.751,1.149,0.625,1.952,0.562,2.576c-0.655-0.793-0.249-0.53-1.086-1.144c-0.042,0.268,1.286,1.051,1.2,1.583
						c-0.515-0.259-1.097-0.336-1.951-1.035l0.241-0.36c-1.213-0.783-0.333,0.448-0.668,0.452l-0.447-0.436
						c-0.286,0.626,0.883,1.676,0.33,2.13l0.402,0.259c0.907,1.322-0.87-0.34-0.261,0.717l-1.258-0.961
						c0.116,0.443,0.548,1.681,0.466,2.22c-0.703-0.972-0.795-1.769-1.095-2.479c-0.177,0.181-0.483,0.719,0.011,1.335
						c-0.046-0.178-0.25-0.53-0.001-0.444c0.722,1.056,0.907,1.767,0.552,2.125c-2.228-2.101-1.449,0.472-3.469-0.831
						c0.254,1.42-1.538,1.008-2.094,1.91c2.03,1.3-0.151,0.272,1.725,1.843c-0.043,0.285-0.135,0.328-0.268,0.238l-1.583-0.416
						c-0.65-0.34-0.251-0.529-0.678-0.875c-0.493,0.274-0.925-0.518-1.646-0.684c0.705,0.524,0.817,0.966,0.366,0.973l1.13,0.426
						c0.485,1.417-1.968-0.876-1.495,0.539l-0.421-0.687c0.087,0.59-0.949,1.069,0.283,2.646c-0.257-0.134-0.82-0.506-0.842-0.75
						c-0.829,0.506,0.232,2.923-1.151,2.671l-0.407-0.443c0.018,0.243,0.654,0.961,0.057,0.73c-0.18-0.17-0.406-0.442-0.485-0.405
						c0.096,0.204,0.494,1.029,0.081,0.974l-0.382-0.586c-1.185,0.171,0.338,2.112,0.158,2.946c-1.337-1.146-2.23-0.97-2.676-0.881
						l-0.182-0.171c-0.845,0.671-0.037,2.318-0.129,3.506c-1.856-0.76-1.929,1.06-3.382,1.126c0.343,0.089,1.045,0.889,1.071,1.133
						c-0.422-0.05,0.542,1.255-0.684,0.208l0.075-0.044c-1.335-0.868-1.303-0.229-1.566,0.033l1.604,1.377
						c-2.991-1.172-0.679,2.673-3.159,1.372c0.27,0.51,0.087,0.731,0.359,1.237l-0.883-0.709c-0.628,0.327-0.941,0.494-1.224,1.285
						l-0.539-0.624c-0.341,0.309,2.23,2.443,2.028,2.804l-1.417-0.933c-0.449,0.64-2.106,0.393-1.345,1.939
						c-0.19-0.159-0.567-0.471-0.546-0.614c-0.255,0.271-1.773,0.474,0.171,1.747c-1.219-0.892-0.602,0.566-0.314,1.298l-0.86-0.711
						c0.937,1.129,1.245,1.367,1.27,1.998c-0.188,0.009-0.784-0.441-0.46-0.4c-0.706-0.026,0.674,0.865-0.089,0.899l-0.472-0.559
						c-0.31,0.275,0.019,0.473,0.562,1.134c0.214,0.463-0.681,0.45-1.539-0.085c0.468,0.4,1.006,1.051,0.639,1.082
						c-0.329-0.193-0.474-0.401-0.543-0.504c-1.001,0.126,0.498,1.577-0.66,1.335c-0.309-0.203-0.478-0.283-0.591-0.314
						c0.325-0.432,0.618-0.756,0.661-0.676c-0.84-0.591-1.235-0.33-2.201-1.434c0.434,0.741,1.481,2.197,0.846,2.274
						c-0.094-0.04-0.186-0.078-0.325-0.155l-0.07-0.102c-0.14,0.023-0.11,0.151-0.015,0.317c-0.215,0.017-0.367,0.019-0.453,0.119
						c-0.73-0.438-0.662,0.16-0.819,0.317c0.941,0.616,0.632,0.75,1.551,1.05c-0.086-0.016-0.089-0.109-0.047-0.255
						c-0.009-0.046-0.001-0.087-0.044-0.142c0.023,0.021,0.049,0.045,0.073,0.068c0.053-0.136,0.137-0.305,0.241-0.49
						c0.375,0.465,0.673,0.882,0.022,0.73c0.536,0.498,1.083,1.015,1.333,1.267c-1.463-0.636-2.488-0.632-3.338-1.102
						c0.152,0.902-0.535,1.535,1.003,3.031c0.123,0.303-0.628-0.152-0.946-0.274c-0.117-0.206-0.018-0.295-0.239-0.509
						c0.247,0.609-0.454,1.037,0.75,1.915c-0.806,0.045-1.006-0.96-1.141-0.272l-0.334-0.318c-2.673-0.141,2.118,3.772-1.193,3.395
						c0.21,0.012,0.309,0.015,0.531,0.125c-0.99,0.346-1.155,1.225-1.398,2.042c-0.25,0.817-0.57,1.575-1.854,1.777
						c-0.587,0.196,0.213,0.698,0.712,1.287l-1.105-0.495l1.001,1.087c0.589,1.068-3.158-0.37-1.854,1.291l0.772,0.281
						c-0.279,0.199-0.025,1.072-0.833,0.598c0.117,0.096,0.706,0.476,0.272,0.387l-0.566-0.28l0.615,1.153
						c-0.679,0.307-2.196-1.213-2.708-0.509c0.067,0.394,1.226,1.616,1.662,1.696c0.087-0.099,0.505-0.112,1.077,0.16l0.162,0.397
						c1.646,0.869,3.263,1.889,4.744,1.873l-0.8-0.922l0.879,0.271l-0.134,0.373c0.866,0.183,0.258-0.277-0.128-0.65
						c0.447,0.183,0.777,0.276,0.98,0.275l-1.37-1.211c0.675,0.282,1.191,0.838,1.693,0.75c-0.634-0.567-1.552-0.56-1.866-1.124
						c0.858,0.186,1.44,0.562,0.921-0.003c0.443,0.188,0.688,0.377,0.827,0.565c-0.401-0.47,0.073-0.657-0.748-1.224
						c1.035,0.279,0.132-0.829,1.678,0.018c-0.339-0.262-1.028-1.015-0.991-1.242c1.674,1.349,0.486-0.654,2.424,0.521
						c-1.53-1.166-0.252-1.326-0.931-2.294c0.118,0.099,0.357,0.299,0.252,0.292c0.272-0.179,0.81,0.028,1.208,0.042
						c-1.353-0.809-1.422-1.372-2.134-2.066c1.497,0.448,1.483,1.104,2.801,1.729c-1.112-0.616-0.78-1.16-1.758-1.586
						c0.951,0.235,0.515,0.026,1.711,0.56c-1.669-1.028-0.156-0.383-1.078-1.185c1.037,0.151,1.634,0.845,1.345,0.173
						C21.747,103.239,22.147,103.918,22.147,103.918z M24.854,93.417c0.009,0.006,0.016,0.01,0.019,0.013
						c-0.028,0.089-0.053,0.166-0.068,0.214C24.817,93.598,24.833,93.533,24.854,93.417z M25.332,92.679
						c-0.096,0.063-0.177,0.169-0.249,0.291c-0.336-0.195-0.646-0.451-0.58-0.513C24.689,92.644,24.989,92.6,25.332,92.679z
						 M17.851,89.833c-0.05-0.21,0.16-0.126,0.361-0.013c-0.022,0.068-0.036,0.156-0.031,0.287c0.031,0.027,0.07,0.062,0.104,0.092
						C18.116,90.065,17.958,89.939,17.851,89.833z"/>
					<path fill="#D2D2D2" d="M18.925,90.877c0.009,0.031,0.042,0.067,0.035,0.095c0.099,0.032,0.184,0.056,0.257,0.071
						c-0.089-0.082-0.178-0.163-0.263-0.24L18.925,90.877z"/>
					<path fill="#D2D2D2" d="M71.593,29.094l-0.031,0c0.045,0.013,0.09,0.027,0.153,0.06C71.658,29.126,71.636,29.115,71.593,29.094
						z"/>
					<polygon fill="#D2D2D2" points="34.308,84.274 34.084,84.099 34.231,84.313 					"/>
					<path fill="#D2D2D2" d="M77.566,27.179c0.088,0.045,0.184,0.085,0.276,0.102C77.779,27.242,77.679,27.211,77.566,27.179z"/>
					<path fill="#D2D2D2" d="M78.933,25.483l0.503-0.047C79.172,25.428,79.029,25.452,78.933,25.483z"/>
					<path fill="#D2D2D2" d="M80.296,24.365c-0.157-0.121-0.28-0.204-0.393-0.279l-0.009-0.001L80.296,24.365z"/>
					<path fill="#D2D2D2" d="M65.733,46.538c-0.01,0.021-0.012,0.048-0.001,0.082C65.804,46.876,65.802,46.742,65.733,46.538z"/>
					<path fill="#D2D2D2" d="M68.601,38.793c0.11,0.192,0.219,0.38,0.266,0.527C69.019,39.263,69.103,39.19,68.601,38.793z"/>
					<path fill="#D2D2D2" d="M61.092,54.081c-0.005-0.005-0.007-0.006-0.014-0.014c-0.009,0.017-0.023,0.026-0.036,0.041
						L61.092,54.081z"/>
					<path fill="#D2D2D2" d="M68.631,39.598c0.261,0.028,0.293-0.095,0.236-0.277C68.738,39.365,68.566,39.4,68.631,39.598z"/>
					<path fill="#D2D2D2" d="M84.359,18.3l0.08-0.05c-0.066-0.034-0.117-0.066-0.155-0.093L84.359,18.3z"/>
					<path fill="#D2D2D2" d="M84.284,18.157l-0.074-0.141C84.19,18.052,84.181,18.087,84.284,18.157z"/>
					<path fill="#D2D2D2" d="M84.051,17.718l0.159,0.298C84.244,17.96,84.314,17.905,84.051,17.718z"/>
					<path fill="#D2D2D2" d="M82.827,20.001l0.344,0.221C83.104,20.169,82.994,20.098,82.827,20.001z"/>
					<path fill="#D2D2D2" d="M82.604,20.651c0.158-0.095,0.955,0.072,0.841-0.252l-0.273-0.176
						C83.648,20.613,82.078,20.18,82.604,20.651z"/>
					<path fill="#D2D2D2" d="M76.89,20.523l0.566-0.296c-0.42-0.138-0.983-0.329-0.954-0.595
						C75.036,19.553,77.417,20.009,76.89,20.523z"/>
					<path fill="#D2D2D2" d="M75.454,21.618c-0.017-0.352-0.539-0.327-0.74-0.469C74.954,21.511,75.015,21.603,75.454,21.618z"/>
					<path fill="#D2D2D2" d="M68.672,31.683l-0.806-0.63C67.847,31.318,68.184,31.29,68.672,31.683z"/>
					<polygon fill="#D2D2D2" points="71.479,36.72 72.123,36.923 71.439,36.275 					"/>
					<polygon fill="#D2D2D2" points="64.833,33.415 64.775,33.249 64.844,33.77 					"/>
					<path fill="#D2D2D2" d="M52.061,49.396l0.994,0.779C52.986,49.911,51.941,48.954,52.061,49.396z"/>
					<path fill="#D2D2D2" d="M47.109,56.938c-0.536-0.346-1.006-0.427-0.646,0.101C46.662,56.946,47.162,57.123,47.109,56.938z"/>
					<polygon fill="#D2D2D2" points="27.888,76.104 27.674,75.695 27.732,76.188 					"/>
				</g>
			</g>
		</g>
	</g>
</g>
</svg>
